HIERARCHY
ROOT pelvis
{
  OFFSET 0 100 0
  CHANNELS 6 Xposition Yposition Zposition Zrotation Xrotation Yrotation
  JOINT pelvis_right_femur
  {
    OFFSET -10.78128 -3.44521 -0.5502486
    CHANNELS 3 Zrotation Xrotation Yrotation
    JOINT right_femur_tibia
    {
      OFFSET -0.8047443 -44.0398 -0.1307829
      CHANNELS 3 Zrotation Xrotation Yrotation
      JOINT right_tibia_foot
      {
        OFFSET 3.006224 -47.83518 -5
        CHANNELS 3 Zrotation Xrotation Yrotation
        End Site
        {
          OFFSET 0 -5 15
        }
      }
    }
  }
  JOINT pelvis_left_femur
  {
    OFFSET 10.78128 -3.44521 -0.5502486
    CHANNELS 3 Zrotation Xrotation Yrotation
    JOINT left_femur_tibia
    {
      OFFSET 0.8047443 -44.0398 -0.1307829
      CHANNELS 3 Zrotation Xrotation Yrotation
      JOINT left_tibia_foot
      {
        OFFSET -4.370144 -48.10324 -4.275266
        CHANNELS 3 Zrotation Xrotation Yrotation
        End Site
        {
          OFFSET 0 -5 15
        }
      }
    }
  }
  JOINT pelvis_spine1
  {
    OFFSET 0 6.468898 -3.129235
    CHANNELS 3 Zrotation Xrotation Yrotation
    JOINT spine1
    {
      OFFSET 0 23.15396 4.99043
      CHANNELS 3 Zrotation Xrotation Yrotation
      JOINT spine2
      {
        OFFSET 0 20.79997 -5.064912
        CHANNELS 3 Zrotation Xrotation Yrotation
        JOINT neck
        {
          OFFSET 0 14.38658 9.616178
          CHANNELS 3 Zrotation Xrotation Yrotation
          End Site
          {
            OFFSET 0 20 0
          }
        }
      }
      JOINT right_manubrium
      {
        OFFSET -5.722621 16.35077 3.967754
        CHANNELS 3 Zrotation Xrotation Yrotation
        JOINT right_clavicle
        {
          OFFSET -13.16364 1.694482 -4.693211
          CHANNELS 3 Zrotation Xrotation Yrotation
          JOINT right_humerus
          {
            OFFSET -28.5034 -0.3100689 -2.792744
            CHANNELS 3 Zrotation Xrotation Yrotation
            JOINT right_radius
            {
              OFFSET -25.15693 0.02248979 -1.271978
              CHANNELS 3 Zrotation Xrotation Yrotation
              End Site
              {
                OFFSET -15 0 0
              }
            }
          }
        }
      }
      JOINT left_manubrium
      {
        OFFSET 5.722621 16.35077 3.967754
        CHANNELS 3 Zrotation Xrotation Yrotation
        JOINT left_clavicle
        {
          OFFSET 13.16364 1.694482 -4.693211
          CHANNELS 3 Zrotation Xrotation Yrotation
          JOINT left_humerus
          {
            OFFSET 29.39168 -1.063119 -2.237045
            CHANNELS 3 Zrotation Xrotation Yrotation
            JOINT left_radius
            {
              OFFSET 24.59957 -0.9528479 0.9047498
              CHANNELS 3 Zrotation Xrotation Yrotation
              End Site
              {
                OFFSET 15 -0 -0
              }
            }
          }
        }
      }
    }
  }
}
MOTION
Frames: 21
Frame Time: 0.0416666666667
-1874.006 105.2927 1133.54 -7.713497 7.492694 -133.2629 7.425218 -6.121238 -1.948525 -0 10.36989 -0 -14.2475 4.075711 -3.382939 -2.119613 2.19573 -3.428699 -0 55.13925 -0 2.718272 -6.8968 15.19566 1.366367 -3.018311 5.564432 0.6263634 16.15418 -8.062045 1.60034 22.57764 3.124841 1.85983 -20.36602 4.654709 -6.486609 -23.23406 11.87819 99.38138 13.66178 -22.6856 -0 0 10.06772 -22.41196 9.180103 6.992577 3.363193 -28.10547 -10.3384 -87.01668 11.27341 18.44762 0 0 -23.24427 12.21745 15.56083 -3.343981
-1878.007 106.6392 1129.192 -7.895184 7.959542 -134.2054 7.720141 -2.880827 -0.7753061 -0 10.99918 -0 -14.02534 2.319604 -3.987816 -1.324383 -1.088623 -3.217771 -0 55.84562 -0 3.515573 -5.458339 15.68724 1.462499 -3.013527 6.081168 0.5331345 16.6077 -7.889984 1.801616 22.32108 2.498395 1.251886 -20.44542 4.62039 -6.806381 -24.41729 11.98288 99.29794 13.34459 -21.61303 -0 0 11.79409 -22.15882 9.709048 7.739276 2.639625 -27.36724 -10.3097 -87.64386 11.54919 20.83806 0 0 -22.08567 11.2369 15.32917 -1.66889
-1881.855 107.891 1124.971 -7.760503 8.163364 -135.1724 7.854582 0.09503103 0.4078417 -0 11.41179 -0 -13.51567 0.0757012 -4.394641 -0.4708133 -4.666843 -3.156403 -0 54.83726 -0 4.192167 -4.255803 16.05021 1.490391 -2.907931 6.575346 0.4418584 16.86717 -7.647708 1.957136 21.95686 2.030025 0.6586252 -20.63839 4.718077 -6.795622 -25.54564 12.11434 98.74601 13.74369 -20.31052 -0 0 13.75293 -21.87882 10.54093 8.787199 2.005643 -26.4187 -10.00825 -88.29125 12.11208 23.30982 0 0 -21.11814 10.07029 14.95637 0.3385715
-1885.592 108.9253 1120.902 -7.309898 8.061551 -136.1169 7.802654 2.764324 1.491354 -0 11.50436 -0 -12.71188 -2.626936 -4.519631 0.4292857 -8.476665 -3.2138 -0 51.96468 -0 4.635408 -3.361276 16.25473 1.445688 -2.69503 7.019218 0.3397909 16.87771 -7.32611 2.050538 21.51237 1.774995 0.1338736 -20.91139 4.948781 -6.404466 -26.5383 12.26649 97.62496 14.95344 -18.75018 -0 0 15.86678 -21.70207 11.71366 10.13477 1.502098 -25.29055 -9.420019 -88.94416 12.9696 25.73814 0 0 -20.3718 8.749742 14.49698 2.600663
-1889.269 109.6236 1116.997 -6.578452 7.65545 -136.9919 7.561241 5.131761 2.351518 -0 11.21629 -0 -11.63354 -5.699899 -4.29993 1.366341 -12.38962 -3.34148 -0 47.15316 -0 4.749568 -2.82769 16.31155 1.335355 -2.385392 7.378989 0.2160963 16.59794 -6.924839 2.073731 21.03297 1.768519 -0.2686481 -21.20987 5.299982 -5.634014 -27.32563 12.41533 95.87584 16.96628 -16.88552 -0 0 18.03698 -21.77441 13.21173 11.745 1.160915 -24.03354 -8.566576 -89.5873 14.09133 27.98372 0 0 -19.81843 7.333776 14.04127 4.982528
-1892.944 109.8891 1113.25 -5.629618 7.005382 -137.7636 7.154298 7.258935 2.883808 -0 10.58816 -0 -10.33895 -9.0083 -3.723204 2.329694 -16.19557 -3.49779 -0 40.48476 -0 4.472342 -2.653049 16.27521 1.187052 -2.01176 7.616898 0.06508814 16.00813 -6.453436 2.031822 20.57864 2.017283 -0.5061941 -21.46327 5.750951 -4.54793 -27.85832 12.51399 93.50505 19.64545 -14.66317 -0 0 20.14904 -22.218 14.95295 13.54268 0.9947342 -22.70467 -7.507092 -90.2151 15.40476 29.92054 0 0 -19.3346 5.897326 13.71345 7.312507
-1896.68 109.6665 1109.642 -4.553463 6.231598 -138.425 6.620072 9.273659 3.047078 -0 9.826016 -0 -8.937452 -12.39768 -2.855907 3.288942 -19.61284 -3.689923 -0 32.29056 -0 3.79497 -2.748424 16.24031 1.049117 -1.631415 7.700669 -0.1144166 15.11818 -5.925576 1.948367 20.21747 2.492204 -0.5582707 -21.5907 6.279659 -3.268917 -28.11389 12.49583 90.60462 22.7165 -12.05225 -0 0 22.08529 -23.08067 16.7896 15.41564 0.9863516 -21.34656 -6.332039 -90.84655 16.79455 31.47427 0 0 -18.67357 4.518638 13.65408 9.417726
-1900.537 108.9633 1106.133 -3.467253 5.487409 -139.0032 5.976711 11.35677 2.903128 -0 9.347735 -0 -7.590192 -15.71277 -1.848883 4.158597 -22.33402 -4.023504 -0 23.20978 -0 2.767998 -2.934553 16.31929 0.9733932 -1.323782 7.621727 -0.3242114 13.97204 -5.347507 1.867033 20.0139 3.12962 -0.4302246 -21.50626 6.868388 -1.94493 -28.09328 12.29025 87.3593 25.80832 -9.091525 -0 0 23.7431 -24.2955 18.5362 17.22404 1.085108 -19.97018 -5.143297 -91.5375 18.11305 32.66118 0 0 -17.48103 3.26355 13.98402 11.17526
-1904.585 107.8648 1102.672 -2.510882 4.898862 -139.5477 5.17373 13.68324 2.62513 -0 9.774677 -0 -6.493461 -18.76907 -0.8968506 4.766036 -24.10771 -4.72225 -0 14.18201 -0 1.470189 -2.987441 16.59324 0.979535 -1.179782 7.419209 -0.5744091 12.64547 -4.707683 1.842231 20.01272 3.850688 -0.1343942 -21.1194 7.49891 -0.6760686 -27.79921 11.85104 84.01727 28.57284 -5.93543 -0 0 25.04982 -25.67857 20.01752 18.81337 1.224434 -18.56122 -4.022454 -92.37615 19.20254 33.60045 0 0 -15.38687 2.17735 14.75651 12.55299
-1908.906 106.5393 1099.2 -1.831428 4.492425 -140.0955 4.061014 16.31889 2.452365 -0 11.82027 -0 -5.858363 -21.26462 -0.1523115 4.86728 -24.83815 -6.059664 -0 6.364109 -0 -0.0538652 -2.725359 17.05299 1.017036 -1.277314 7.19644 -0.889402 11.23853 -3.97789 1.912849 20.22547 4.598352 0.3575617 -20.32585 8.123913 0.5734363 -27.20163 11.18876 80.79994 30.85626 -2.855589 -0 0 25.96489 -26.96859 21.0947 20.01116 1.371657 -17.12509 -3.005858 -93.44675 19.91346 34.46352 0 0 -12.1627 1.308059 15.90945 13.58373
-1913.589 105.2221 1095.661 -1.558715 4.165208 -140.6275 2.435017 19.11257 2.578166 -0 16.01459 -0 -5.904781 -22.70363 0.3721344 4.243188 -24.66434 -8.182794 -0 0.9497414 -0 -1.819525 -2.095505 17.5884 0.9610685 -1.636549 7.100579 -1.306778 9.870508 -3.131653 2.0657 20.62912 5.36805 1.163533 -19.00694 8.615653 2.000031 -26.22151 10.39053 77.78606 32.80394 -0.1661071 -0 0 26.46565 -27.88341 21.6153 20.5972 1.594371 -15.75436 -2.10261 -94.74975 20.09887 35.33266 0 0 -7.875671 0.7911139 17.22995 14.2139
-1918.69 104.1675 1092.01 -1.777648 3.760882 -141.0578 0.2141631 21.65691 2.969085 -0 22.25741 -0 -6.836931 -22.44357 0.8631185 2.845173 -23.9419 -10.92028 0 -1.167852 0 -3.79034 -1.219321 18.08294 0.6727488 -2.161031 7.231603 -1.864026 8.690457 -2.175849 2.220891 21.17929 6.192015 2.468662 -17.10537 8.744986 3.819887 -24.77559 9.609997 74.92436 34.75284 1.890455 -0 0 26.5064 -28.22718 21.31771 20.33456 2.077454 -14.65806 -1.378575 -96.07704 19.5979 35.98434 0 0 -2.951593 0.9773178 18.36683 14.05503
-1924.189 103.5714 1088.213 -2.506209 3.258402 -141.2926 -2.326871 23.41357 3.226092 -0 29.48689 -0 -8.712858 -19.88493 1.65044 0.9004382 -23.01501 -13.75653 -0 0.1483142 -0 -5.656246 -0.4046415 18.56632 0.09982571 -2.613389 7.50144 -2.56637 7.899825 -1.179053 2.288177 21.82754 7.060707 4.350989 -14.84261 8.309592 5.955218 -22.89428 9.021495 72.3298 36.86254 3.194478 -0 0 25.9436 -28.14124 19.9041 19.22623 2.995967 -14.07791 -1.033356 -96.94959 18.28498 35.77814 -0 0 1.894333 2.3971 18.95997 12.34654
-1929.947 103.5049 1084.252 -3.681755 2.924797 -141.3062 -4.535029 23.99708 2.785284 -0 36.06725 -0 -11.24344 -14.76348 2.951197 -1.123806 -21.82931 -16.05088 -0 3.988701 -0 -6.81184 -0.1237595 19.21849 -0.6637201 -2.710301 7.588703 -3.329655 7.714227 -0.2726217 2.274183 22.54012 7.844946 6.489504 -12.90556 7.439572 7.790984 -20.8478 8.754476 70.70073 38.6578 3.621595 -0 0 24.52377 -28.22042 17.43966 17.8056 4.263609 -14.10477 -1.298354 -96.90076 16.26613 34.03587 -0 0 5.831385 5.245517 18.85067 8.637255
-1935.732 103.9173 1080.153 -5.131996 3.174173 -141.1364 -5.731299 23.28409 1.452164 -0 40.8866 -0 -13.80479 -7.50632 4.55944 -2.752527 -19.82129 -17.32582 -0 8.648524 -0 -6.777181 -0.8312974 20.1064 -1.41215 -2.320955 7.142436 -3.937987 8.208203 0.3721628 2.28463 23.31067 8.33855 8.097942 -12.16941 6.71506 8.406368 -19.12991 8.844693 71.22927 39.01147 2.840225 -0 0 22.09806 -28.90988 14.57658 16.81231 5.445589 -14.60166 -2.190126 -95.98833 14.11084 30.80792 -0 0 8.102927 8.766182 18.19984 3.780535
-1941.294 104.7009 1075.996 -6.557651 4.158612 -140.824 -5.640496 21.10266 -0.3769839 -0 43.97494 -0 -15.76825 0.6061522 5.893293 -3.788884 -16.40506 -17.42877 -0 12.44712 -0 -5.643199 -2.630355 20.94869 -1.933978 -1.572293 6.094736 -4.127895 9.209823 0.5662162 2.361582 24.10553 8.421106 8.47621 -13.00592 6.657292 7.305969 -18.19867 9.227042 74.53071 36.98738 0.6015095 -0 0 18.94572 -29.76022 12.01269 16.42753 6.081485 -15.39968 -3.464723 -94.70629 12.7288 26.99605 -0 0 8.162595 11.61165 17.36172 -0.3492285
-1946.447 105.7265 1071.894 -7.61091 5.543071 -140.4038 -4.548704 17.0727 -2.07393 -0 45.83657 -0 -16.82001 7.693075 6.436238 -4.333097 -11.62446 -16.58935 -0 14.45202 -0 -3.984039 -5.135694 21.28118 -2.113966 -0.739029 4.725765 -3.793543 10.4004 0.1687741 2.385613 24.77304 8.174563 7.702652 -14.92754 7.118696 4.983 -18.14005 9.775899 79.60337 32.90489 -2.651777 -0 0 15.79091 -29.80774 9.933993 16.16213 6.100255 -16.49996 -4.830116 -93.36526 12.65279 23.52457 -0 0 5.877859 13.00151 16.51083 -2.508356
-1951.121 106.8106 1067.949 -8.060388 6.751192 -139.9414 -3.115526 11.16884 -3.295841 -0 46.31402 -0 -17.05711 11.86815 6.115816 -4.511838 -6.300547 -15.36679 -0 14.54556 -0 -2.418383 -7.704272 20.89104 -1.966268 -0.06055795 3.416111 -3.094656 11.46653 -0.7732167 2.198671 25.11296 7.842508 6.554908 -16.89272 7.485988 2.669301 -18.56338 10.38309 84.41793 28.43227 -6.049135 -0 0 13.36853 -28.74786 8.252116 15.5634 5.862041 -17.9625 -6.086905 -91.93516 13.35734 20.58953 -0 0 1.890513 13.36038 15.60656 -3.227525
-1955.369 107.7032 1064.218 -7.920945 7.371203 -139.5468 -1.985611 4.236634 -4.266376 -0 44.38322 -0 -16.88327 12.17539 5.351985 -4.334552 -1.564229 -14.31348 -0 13.25822 -0 -1.228677 -9.816255 19.98322 -1.650668 0.3231554 2.417103 -2.305962 12.23098 -2.017702 1.750088 25.03855 7.659166 5.842831 -17.97398 7.303225 1.48816 -18.88337 11.02776 87.36999 25.44029 -8.99625 -0 0 11.99726 -27.39183 7.058679 14.686 5.880199 -19.75976 -7.097863 -90.34102 13.36292 17.74497 0 0 -2.391181 13.993 14.76099 -4.490525
-1959.318 108.2038 1060.706 -7.329225 7.149256 -139.3505 -1.474345 -2.755135 -5.444222 -0 39.37788 -0 -16.72082 9.488968 4.843421 -3.906101 1.678679 -13.4461 -0 11.8902 -0 -0.0631503 -11.24927 18.88756 -1.515866 0.2975199 1.927811 -1.533924 12.85321 -3.456918 1.007797 24.43377 7.718277 6.078322 -17.88771 6.29748 2.01568 -18.79073 11.8386 87.88305 25.10786 -11.43507 -0 0 11.74971 -26.67859 6.55125 13.61379 6.594199 -21.98999 -7.746321 -88.73988 10.83864 14.70263 0 0 -5.715706 16.38885 13.79909 -8.662293
-1963.087 108.3323 1057.4 -6.317751 5.734834 -139.4244 -1.418158 -10.04289 -6.788533 -0 32.50205 -0 -16.62269 6.4341 5.201722 -3.670395 3.157284 -12.11575 -0 12.35641 -0 2.132804 -11.9698 17.79877 -2.016654 -0.2563313 2.246059 -0.6066263 13.83139 -5.421223 -0.1867369 22.92431 7.99591 7.593528 -17.04022 4.077594 4.424986 -18.44402 13.05712 86.26836 28.12311 -13.91769 -0 0 12.88002 -26.30039 6.574323 11.71223 8.291169 -25.04755 -7.963003 -87.5415 4.561444 11.8539 0 0 -8.290811 21.35537 11.16621 -17.14361
